<svg version="1.1" id="Layer_1" xmlns="http://www.w3.org/2000/svg" x="0" y="0" viewBox="0 0 800 127.3" xml:space="preserve"><g fill-rule="evenodd" clip-rule="evenodd"><path d="M0 57v56.9l113.1.1c1-4 .6-50.3.2-57.1-7.2-3.2-54.1-28.1-56.4-28.2C55.1 28.6 5.9 54.3 0 57z" fill="#0077b9"/><path d="M381.6 32.2c0-4.7-.8-13.1 4.5-13.2 5.7-.2 4.7 8.1 4.7 12.7v49.1c0 5 1.2 15.8-4.2 16.2-4 .3-4.4-2.2-4.7-5.7-.9-9.5-.3-47.4-.3-59.1zm11.5 95.1h26.7l.2-13.5c-9.5-1.2-18.8 2.6-17.7-5.8 6.1-2.7 10.1-3.1 13.6-7.9 6.3-8.6 4-47.1 4-58.5 0-14.1-.7-25.8-8.8-32.8-15.3-13.3-48.5-12.7-56.4 10.3-3.1 9.2-2.2 28.9-2.2 39.8 0 22.4-2.9 39.6 12.6 50.2 5 3.4 9.2 3.6 16.1 4.7.1 6.3.5 10.8 6.5 12.4l5.4 1.1zm138.7-63.8c9.6.4 9.5 2.1 9.5 11.6v7.8c0 9.1-.2 11.1-9.5 11.6v-31zm0-42c9.5.3 9.6 2.9 9.5 12.3-.1 10 .6 12.1-9.5 12.3V21.5zm-29.2 92.1c12.1 0 24.1.1 36.1 0 28-.3 33.6-3.4 31.5-40-.7-12.1-5.5-17.3-16.1-19.7 4.5-3.9 13.7-.3 14.1-19.1.5-25.7-9.7-31.7-32.6-32.3-10.9-.3-22-.1-32.9-.1l-.1 111.2zm150-.1l24.3.1.1-48.9 15 48.7c3.2.9 20.8.3 25.4.2l.2-111.1h-24.3l-.1 49.4c-.5-2.3-16-48.4-16.6-49.3l-23.9-.1-.1 111zM304.3 32.2c0-4.7-.8-13.1 4.5-13.2 5.7-.2 4.7 8.1 4.7 12.7v49.1c0 5 1.2 15.8-4.2 16.2-4 .3-4.4-2.2-4.7-5.7-.9-9-.3-47.8-.3-59.1zM302.9.5c-13.2 2.1-22.6 7.8-25.9 19.7-2.7 9.8-1.8 32.9-1.8 44.4 0 13.7-1.1 30.7 6 39.6 14 17.7 52.6 16.1 59.7-8.6 2.6-9.3 1.7-32.8 1.7-44.1 0-14.2 1.2-29.9-5.8-39.5-6-8.1-19.1-13.8-33.9-11.5zm426.4 113.1h29.1l.1-45c1.7 1.7 5.6 20.2 6.1 22.5 1.9 7.7 3.5 15.1 5.6 22.6h29.7c-.3-2.9-6.7-23.1-8.1-27.9-2.8-9.5-5.5-18.6-8.4-28.2-2.1-7-.8-7.2 1.5-13.8 1.5-4.6 3-8.9 4.6-13.7 1.6-4.7 3-9.1 4.6-13.7 1.3-4 3.8-10.1 4.4-13.9h-27.1c-1.5 5.5-11.2 39.2-12.7 41.3l-.2-41.1-29-.3-.2 111.2zM605.9 73.9c-.3-6.7 1.5-16.6 2.2-23.4.8-7 2.5-15.5 3-22.3l4.4 45.7h-9.6zm-31.7 39.6l30.1.1 1.7-19.7 10.5-.3 1.4 19.8 29.6.2L631 2.5l-42-.1-14.8 111.1zM177.5 73.9c-.2-8.6 3.9-34.1 5.1-44.7.7 1.7 4.6 40.7 4.5 44.7h-9.6zm-31.6 39.6l30.1.1 1.8-19.9h10.5l1.4 19.9h29.7L202.7 2.4h-42l-14.8 111.1zm309.8-39.6c0-6 4-41.3 5.5-45l4.3 45h-9.8zm-31.6 39.7h30.2L456 94c2.3-.6 8.2-.6 10.5 0l1.4 19.5 29.6.2L481 2.4h-42l-14.9 111.2zm-199.7-.2l46.7.2.1-22.2-17.6-.1-.1-88.8h-29.1v110.9z" fill="#0093dc"/><path d="M0 42.9c3.5-.5 53.8-27.6 56.5-27.9 3.1-.3 48.4 25 56.7 27.9l.1-41.5L0 1.6v41.3z" fill="#30b1ea"/></g></svg>