<svg width="108" height="44" viewBox="0 0 108 44" fill="none" xmlns="http://www.w3.org/2000/svg">
<path d="M7.25377 1.08534C6.63274 2.35538 6.40987 3.78377 6.61443 5.18294C6.70936 5.86267 6.8816 6.52931 7.1278 7.16987C7.22287 7.49587 7.394 7.80283 7.51997 8.12169C7.64594 8.44056 7.84321 8.72848 7.99532 9.03069C8.14743 9.33289 8.36847 9.72076 8.56574 10.0634C8.76301 10.4061 8.92225 10.7916 9.08387 11.1699C9.39579 11.9507 9.54384 12.7874 9.51881 13.628C9.49044 14.483 9.28656 15.3229 8.91987 16.0956C8.56886 16.8701 7.9879 17.5173 7.25615 17.9493L7.07076 17.7875C7.3143 16.4506 7.31993 15.0811 7.0874 13.7422C7.05888 13.5852 7.03036 13.4305 7.01134 13.2663C6.99233 13.1021 6.94955 12.957 6.92578 12.7904C6.90201 12.6238 6.883 12.4739 6.84735 12.3145L6.77129 11.8386C6.71425 11.5149 6.64057 11.1866 6.56689 10.8558C6.49321 10.525 6.36487 10.2205 6.24128 9.86829C6.11769 9.51612 5.96082 9.12587 5.85149 8.74514C5.73739 8.36639 5.64299 7.98197 5.56866 7.59343C5.424 6.80903 5.36819 6.0108 5.40228 5.21387C5.52587 3.63384 6.02262 2.07047 7.06601 0.930664L7.25377 1.08534Z" fill="url(#paint0_linear_2972_2285)"/>
<path d="M26.9262 22.2492C26.9284 21.1859 26.6185 20.1454 26.0349 19.257C25.4514 18.3686 24.6199 17.6714 23.6439 17.2522V14.0017C23.6439 12.6049 22.3438 11.5674 20.5945 11.5674H16.8107C15.0615 11.5674 13.7638 12.6049 13.7638 14.0017V39.7009C13.7638 40.736 13.1981 41.5046 11.7887 41.5046C6.42673 41.5046 1.96795 37.9876 1.96795 33.6521V12.3336C1.96795 11.8815 1.51637 11.5674 0.9507 11.5674C0.442075 11.5674 0 11.9267 0 12.3336V33.6521C0 38.7895 5.25024 43.0704 11.7982 43.0704C18.3461 43.0704 23.6534 38.9704 23.6534 33.6521V27.2273C24.6248 26.8081 25.4524 26.1133 26.034 25.2287C26.6156 24.3441 26.9258 23.3083 26.9262 22.2492Z" fill="#55432F"/>
<path d="M52.4525 36.5719C52.244 36.6554 51.9892 36.7668 51.7576 36.8781C50.0118 37.6048 48.135 37.9632 46.2445 37.931C39.4436 37.931 34 33.5014 34 28.1534C34 22.722 39.5594 18.3759 46.2445 18.3759C47.8617 18.3576 49.4699 18.6196 50.9978 19.1505L51.4843 19.2896C51.8484 19.4158 52.1966 19.5839 52.522 19.7906C52.582 19.8299 52.632 19.8826 52.6682 19.9446C52.7044 20.0066 52.7257 20.0761 52.7305 20.1477C52.7305 20.426 52.4525 20.6116 52.1051 20.6116C51.9714 20.605 51.8412 20.5668 51.7252 20.5002C49.9991 19.7346 48.1324 19.338 46.2445 19.336C43.122 19.336 39.5131 20.1941 39.5131 23.1302V33.1582C39.5131 36.0942 43.2193 36.9523 46.2445 36.9523C48.152 36.977 50.0408 36.5728 51.7715 35.7695C51.9007 35.7024 52.043 35.6644 52.1884 35.6582C52.3376 35.6425 52.4868 35.6863 52.6039 35.7801C52.721 35.8739 52.7964 36.01 52.8139 36.1591C52.8 36.3539 52.6981 36.4885 52.4525 36.5719Z" fill="#55432F"/>
<path d="M73.083 37.3233C73.1201 37.3512 73.1201 37.4346 73.1201 37.5691C73.1201 37.7037 72.944 37.8196 72.7031 37.9031C72.3233 37.9309 72.1843 37.8753 72.1148 37.764C72.0506 37.7042 71.9917 37.6391 71.9387 37.5691C71.9387 37.5413 71.8692 37.3511 71.7673 37.045C71.6654 36.7389 71.4893 36.3817 71.3504 35.9921C71.2114 35.6025 71.0029 35.0645 70.7944 34.5218C70.6799 34.2142 70.4576 33.9587 70.169 33.8029C69.849 33.6353 69.4922 33.5508 69.1312 33.557H64.2807C63.9183 33.5514 63.5601 33.6359 63.2383 33.8029C62.9518 33.9613 62.7303 34.2159 62.6129 34.5218L61.6863 37.0728C61.5664 37.3164 61.3779 37.5195 61.1442 37.6572C60.9104 37.7948 60.6415 37.8609 60.3706 37.8475H56.9284C56.7276 37.8602 56.5266 37.8272 56.3404 37.7508C56.1542 37.6745 55.9878 37.5569 55.8536 37.4068C55.7272 37.2928 55.6396 37.1421 55.603 36.9757C55.5665 36.8094 55.5828 36.6357 55.6497 36.4791L62.0291 19.4983C62.144 19.2578 62.3267 19.0562 62.5548 18.9185C62.7829 18.7808 63.0463 18.7131 63.3124 18.7237H65.0497C65.74 18.7237 66.194 18.9696 66.3654 19.4983L73.083 37.3233ZM69.1312 32.583C69.2339 32.5872 69.3364 32.57 69.4321 32.5325C69.5278 32.495 69.6147 32.4379 69.6872 32.365C69.7513 32.3007 69.7952 32.2189 69.8133 32.1298C69.8314 32.0408 69.823 31.9484 69.7891 31.864L67.3939 25.4678C67.3339 25.3389 67.235 25.232 67.1112 25.1622C66.9874 25.0923 66.8449 25.0629 66.7036 25.0782C66.5667 25.0675 66.4297 25.0992 66.3113 25.1688C66.1928 25.2385 66.0985 25.3429 66.0412 25.4678L63.6506 31.864C63.6167 31.9484 63.6083 32.0408 63.6264 32.1298C63.6445 32.2189 63.6884 32.3007 63.7525 32.365C63.825 32.4379 63.9119 32.495 64.0076 32.5325C64.1033 32.57 64.2058 32.5872 64.3085 32.583H69.1312Z" fill="#55432F"/>
<path d="M81.5276 36.3262C81.5276 37.2121 80.6937 37.8754 79.5864 37.8754H77.4322C76.3573 37.8754 75.5234 37.2121 75.5234 36.3541V20.2313C75.5234 19.3732 76.3573 18.71 77.4322 18.71H89.1254C89.2893 18.7107 89.4498 18.7573 89.5887 18.8445C89.6406 18.89 89.6829 18.9455 89.7131 19.0076C89.7433 19.0697 89.7609 19.1373 89.7647 19.2063C89.7637 19.2719 89.7472 19.3363 89.7166 19.3943C89.686 19.4523 89.6422 19.5023 89.5887 19.5402C89.4511 19.6309 89.2901 19.6793 89.1254 19.6794H83.1027C82.1993 19.6794 81.5415 20.2035 81.5415 20.9224V26.9522C81.5415 27.6712 82.1993 28.1999 83.1027 28.1999H86.9526C87.1034 28.1975 87.2504 28.2465 87.3696 28.3391C87.4133 28.382 87.4482 28.4333 87.472 28.4898C87.4959 28.5463 87.5083 28.607 87.5085 28.6684C87.5085 28.9745 87.3325 29.1322 86.9526 29.1322H83.0888C82.1854 29.1322 81.5276 29.661 81.5276 30.3799V36.3262Z" fill="#55432F"/>
<path d="M94.8844 37.9029C93.8096 37.9029 93.0312 37.2118 93.0312 36.3816V20.2588C93.0312 19.4286 93.8281 18.7375 94.8844 18.7375H107.393C107.543 18.734 107.69 18.7814 107.81 18.872C107.912 18.9657 107.973 19.0955 107.981 19.2338C107.959 19.3706 107.886 19.494 107.777 19.5798C107.668 19.6655 107.531 19.7076 107.393 19.6976H100.194C99.8909 19.6787 99.5925 19.7767 99.3597 19.9713C99.2533 20.0473 99.1663 20.1474 99.106 20.2635C99.0456 20.3796 99.0135 20.5083 99.0122 20.6392V27.2627C99.0134 27.3929 99.0456 27.521 99.106 27.6363C99.1664 27.7516 99.2534 27.8509 99.3597 27.9259C99.5908 28.1239 99.89 28.2238 100.194 28.2042H104.391C104.738 28.2599 104.979 28.3712 104.979 28.6681C104.957 28.8049 104.884 28.9283 104.775 29.0141C104.666 29.0998 104.529 29.1419 104.391 29.1319H100.194C99.89 29.1124 99.5908 29.2122 99.3597 29.4102C99.2534 29.4852 99.1664 29.5845 99.106 29.6999C99.0456 29.8152 99.0134 29.9433 99.0122 30.0735V35.9734C99.0131 36.1037 99.045 36.2319 99.1055 36.3473C99.1659 36.4627 99.2531 36.5619 99.3597 36.6367C99.5908 36.8347 99.89 36.9345 100.194 36.915H107.407C107.545 36.905 107.682 36.947 107.791 37.0328C107.9 37.1186 107.973 37.242 107.995 37.3788C107.991 37.4506 107.972 37.5208 107.939 37.585C107.907 37.6493 107.862 37.7063 107.807 37.7526C107.752 37.799 107.688 37.8338 107.619 37.8548C107.551 37.8759 107.478 37.8828 107.407 37.8751L94.8844 37.9029Z" fill="#55432F"/>
<defs>
<linearGradient id="paint0_linear_2972_2285" x1="5.39515" y1="9.43759" x2="9.53783" y2="9.43759" gradientUnits="userSpaceOnUse">
<stop stop-color="#E86724"/>
<stop offset="1" stop-color="#FCB415"/>
</linearGradient>
</defs>
</svg>
