<?xml version="1.0" encoding="utf-8"?>
<!-- Generator: Adobe Illustrator 25.0.0, SVG Export Plug-In . SVG Version: 6.00 Build 0)  -->
<svg version="1.1" id="Layer_1" xmlns="http://www.w3.org/2000/svg" xmlns:xlink="http://www.w3.org/1999/xlink" x="0px" y="0px"
	 viewBox="0 0 2903.66 664.77" style="enable-background:new 0 0 2903.66 664.77;" xml:space="preserve">
<style type="text/css">
	.st0{fill:#16376B;}
</style>
<g>
	<g>
		<g>
			<g>
				<path class="st0" d="M1376.44,37.51h-49.07V4.8h133.61v32.71h-49.06v128.54h-35.48V37.51z"/>
			</g>
			<g>
				<path class="st0" d="M1470.01,85.42c0-45.84,36.17-83.39,85.93-83.39s85.46,37.09,85.46,83.39c0,45.85-36.17,83.39-85.93,83.39
					S1470.01,131.73,1470.01,85.42z M1604.31,85.42c0-27.64-20.27-50.67-48.84-50.67c-28.56,0-48.37,22.57-48.37,50.67
					c0,27.65,20.27,50.68,48.84,50.68S1604.31,113.54,1604.31,85.42z"/>
			</g>
			<g>
				<path class="st0" d="M1653.76,142.56l20.97-25.12c14.51,11.98,29.71,19.59,48.14,19.59c14.52,0,23.27-5.76,23.27-15.67
					c0-8.99-5.53-13.59-32.48-20.5c-32.48-8.3-53.44-17.28-53.44-49.76c0-29.26,23.49-48.61,56.44-48.61
					c23.49,0,43.54,7.38,59.9,20.51l-18.43,26.72c-14.29-9.9-28.34-15.89-41.93-15.89s-20.74,6.22-20.74,14.51
					c0,10.6,6.92,14.06,34.79,21.2c32.71,8.53,51.13,20.27,51.13,48.84c0,32.02-24.42,50-59.2,50
					C1697.76,168.36,1673.11,159.84,1653.76,142.56z"/>
			</g>
			<g>
				<path class="st0" d="M1807.57,4.8h35.48v63.81h65.43V4.8h35.47v161.25h-35.47v-64.73h-65.43v64.73h-35.48V4.8z"/>
			</g>
			<g>
				<path class="st0" d="M1978.67,4.8h35.48v70.48l65.43-70.48h42.84l-65.65,68.41l68.65,92.84h-42.62l-49.99-68.65l-18.66,19.35
					v49.3h-35.48V4.8z"/>
			</g>
			<g>
				<path class="st0" d="M2141.92,4.8h121.63v31.56h-86.39v32.71h76.03v31.56h-76.03v33.87h87.55v31.56h-122.79V4.8z"/>
			</g>
			<g>
				<path class="st0" d="M2293.29,4.8H2326l75.56,99.28V4.8h35.02v161.25h-30.17l-78.1-102.52v102.52h-35.02V4.8z"/>
			</g>
			<g>
				<path class="st0" d="M2504.86,37.51h-49.07V4.8h133.61v32.71h-49.06v128.54h-35.48V37.51z"/>
			</g>
		</g>
		<g>
			<g>
				<path class="st0" d="M1327.36,324.33v-92.14h35.48v91.22c0,26.27,13.13,39.86,34.78,39.86c21.66,0,34.79-13.13,34.79-38.7
					v-92.38h35.47v90.99c0,48.84-27.4,72.79-70.72,72.79C1353.85,395.98,1327.36,371.79,1327.36,324.33z"/>
			</g>
			<g>
				<path class="st0" d="M1500.79,232.19h32.71l75.56,99.28v-99.28h35.02v161.25h-30.17l-78.1-102.52v102.52h-35.02V232.19z"/>
			</g>
			<g>
				<path class="st0" d="M1679.54,232.19h35.48v161.25h-35.48V232.19z"/>
			</g>
			<g>
				<path class="st0" d="M1733.52,232.19h39.16l42.16,113.57l42.16-113.57h38.24l-65.19,162.4h-31.33L1733.52,232.19z"/>
			</g>
			<g>
				<path class="st0" d="M1913.41,232.19h121.63v31.56h-86.39v32.71h76.03v31.56h-76.03v33.87h87.55v31.56h-122.79V232.19z"/>
			</g>
			<g>
				<path class="st0" d="M2064.79,232.19h73.72c20.5,0,36.4,5.76,46.99,16.35c8.99,8.99,13.83,21.66,13.83,37.31
					c0,26.04-14.06,42.39-34.55,50l39.39,57.59h-41.46l-35.02-51.61h-27.41v51.61h-35.48V232.19z M2136.2,310.51
					c17.28,0,27.18-9.21,27.18-23.27c0-15.21-10.6-23.03-27.88-23.03h-35.24v46.3H2136.2z"/>
			</g>
			<g>
				<path class="st0" d="M2214.25,369.95l20.97-25.12c14.51,11.98,29.71,19.59,48.14,19.59c14.52,0,23.27-5.76,23.27-15.67
					c0-8.99-5.53-13.59-32.48-20.5c-32.48-8.3-53.44-17.28-53.44-49.76c0-29.26,23.49-48.61,56.44-48.61
					c23.49,0,43.54,7.38,59.9,20.51l-18.43,26.72c-14.29-9.9-28.34-15.89-41.93-15.89c-13.59,0-20.74,6.22-20.74,14.51
					c0,10.6,6.92,14.06,34.79,21.2c32.71,8.53,51.13,20.27,51.13,48.84c0,32.02-24.42,50-59.2,50
					C2258.25,395.75,2233.6,387.23,2214.25,369.95z"/>
			</g>
			<g>
				<path class="st0" d="M2368.74,232.19h35.48v161.25h-35.48V232.19z"/>
			</g>
			<g>
				<path class="st0" d="M2472.91,264.9h-49.07v-32.71h133.61v32.71h-49.06v128.54h-35.48V264.9z"/>
			</g>
			<g>
				<path class="st0" d="M2576.66,232.19h121.63v31.56h-86.39v32.71h76.03v31.56h-76.03v33.87h87.55v31.56h-122.79V232.19z"/>
			</g>
			<g>
				<path class="st0" d="M2763.63,264.9h-49.07v-32.71h133.61v32.71h-49.06v128.54h-35.48V264.9z"/>
			</g>
			<g>
				<path class="st0" d="M2868.18,232.19h35.48v161.25h-35.48V232.19z"/>
			</g>
		</g>
	</g>
	<g>
		<g>
			<g>
				<g>
					<path class="st0" d="M305.06,308.26H1.17c-0.64,0-1.17-0.52-1.17-1.17V3.2c0-0.64,0.52-1.17,1.17-1.17h303.9
						c0.64,0,1.17,0.52,1.17,1.17v303.9C306.23,307.74,305.71,308.26,305.06,308.26z"/>
				</g>
				<g>
					<path class="st0" d="M1015.52,308.26h-303.9c-0.64,0-1.17-0.52-1.17-1.17V3.2c0-0.64,0.52-1.17,1.17-1.17h303.9
						c0.64,0,1.17,0.52,1.17,1.17v303.9C1016.68,307.74,1016.16,308.26,1015.52,308.26z"/>
				</g>
				<g>
					<path class="st0" d="M660.29,308.26h-303.9c-0.64,0-1.17-0.52-1.17-1.17V3.2c0-0.64,0.52-1.17,1.17-1.17h303.9
						c0.64,0,1.17,0.52,1.17,1.17v303.9C661.46,307.74,660.93,308.26,660.29,308.26z"/>
				</g>
				<g>
					<path class="st0" d="M660.29,663.49h-303.9c-0.64,0-1.17-0.52-1.17-1.17v-303.9c0-0.64,0.52-1.17,1.17-1.17h303.9
						c0.64,0,1.17,0.52,1.17,1.17v303.9C661.46,662.97,660.93,663.49,660.29,663.49z"/>
				</g>
			</g>
		</g>
		<g>
			<g>
				<path class="st0" d="M717.17,618.42c-10.76,0-19.52,8.73-19.52,19.46c0,10.73,8.71,19.47,19.42,19.47
					c10.76,0,19.52-8.73,19.52-19.47C736.58,627.15,727.88,618.42,717.17,618.42z M717.17,621.25c9.24,0,16.48,7.26,16.48,16.53
					c0,9.38-7.28,16.73-16.58,16.73c-9.24,0-16.48-7.26-16.48-16.52C700.59,628.6,707.87,621.25,717.17,621.25z"/>
			</g>
			<g>
				<path class="st0" d="M713.23,640.4h4.04l4.93,6.88h4.51l-5.35-7.5c2.73-0.79,4.62-2.78,4.62-5.98c0-1.84-0.58-3.26-1.63-4.25
					c-1.36-1.37-3.41-2.15-6.04-2.15h-8.87v19.88h3.78V640.4z M713.23,630.8h4.94c2.46,0,3.93,1.1,3.93,3.1
					c0,1.99-1.47,3.2-3.93,3.2h-4.94V630.8z"/>
			</g>
		</g>
	</g>
	<g>
		<g>
			<path class="st0" d="M1362.2,575.56l-33.02,87.93h15.54l5.8-16.69h33.89l5.8,16.69h15.54l-33.02-87.93H1362.2z M1355.32,632.95
				l12.14-34.96l12.14,34.96H1355.32z"/>
		</g>
		<g>
			<polygon class="st0" points="1470.55,634.22 1449.26,575.56 1432.57,575.56 1432.57,663.49 1446.12,663.49 1446.12,603.1 
				1464.74,652.48 1476.36,652.48 1494.98,601.93 1494.98,663.49 1508.53,663.49 1508.53,575.56 1491.84,575.56 			"/>
		</g>
		<g>
			<path class="st0" d="M1568.39,575.56l-33.02,87.93h15.54l5.8-16.69h33.89l5.8,16.69h15.54l-33.02-87.93H1568.39z M1561.51,632.95
				l12.14-34.96l12.14,34.96H1561.51z"/>
		</g>
		<g>
			<polygon class="st0" points="1653.22,575.56 1638.76,575.56 1638.76,663.49 1645.54,663.49 1653.22,663.49 1696.46,663.49 
				1696.46,649.64 1653.22,649.64 			"/>
		</g>
		<g>
			<rect x="1723.29" y="575.56" class="st0" width="14.76" height="87.93"/>
		</g>
		<g>
			<polygon class="st0" points="1795.72,614.32 1777.7,575.56 1762.16,575.56 1788.52,628.66 1788.52,663.49 1802.92,663.49 
				1802.92,628.66 1829.29,575.56 1813.74,575.56 			"/>
		</g>
		<g>
			<polygon class="st0" points="1901.23,575.56 1895.18,575.56 1895.18,663.49 1909.63,663.49 1909.63,627.51 1945.07,627.51 
				1945.07,613.72 1909.63,613.72 1909.63,589.41 1951.73,589.41 1951.73,575.56 1909.63,575.56 			"/>
		</g>
		<g>
			<path class="st0" d="M1997.92,575.56l-33.02,87.93h15.54l5.8-16.69h33.89l5.8,16.69h15.54l-33.02-87.93H1997.92z M1991.05,632.95
				l12.14-34.96l12.14,34.96H1991.05z"/>
		</g>
		<g>
			<polygon class="st0" points="2120.43,640.64 2084.02,575.56 2068.3,575.56 2068.3,663.43 2082.33,663.43 2082.33,599.35 
				2118.61,663.43 2134.46,663.43 2134.46,575.56 2120.43,575.56 			"/>
		</g>
		<g>
			<polygon class="st0" points="2181.6,575.56 2167.15,575.56 2167.15,663.49 2173.92,663.49 2181.6,663.49 2224.84,663.49 
				2224.84,649.64 2181.6,649.64 			"/>
		</g>
		<g>
			<path class="st0" d="M2281.06,575.56l-33.02,87.93h15.54l5.8-16.69h33.89l5.8,16.69h15.54l-33.02-87.93H2281.06z M2274.18,632.95
				l12.14-34.96l12.14,34.96H2274.18z"/>
		</g>
		<g>
			<path class="st0" d="M2399.39,663.49h17.36l-20.71-37.46c1.79-0.52,3.54-1.13,5.14-2.03c3.77-2.14,6.69-5.16,8.77-9.07
				c2.07-3.91,3.11-8.45,3.11-13.61c0-5.12-1.04-9.63-3.11-13.55c-2.08-3.91-4.99-6.94-8.74-9.07c-3.75-2.14-8.1-3.21-13.06-3.21
				h-22.26h-8.47h-5.99v87.99h14.45V627.2h14.21L2399.39,663.49z M2365.89,589.35h21.83c2.06,0,3.86,0.49,5.41,1.48
				c1.55,0.99,2.75,2.39,3.6,4.21c0.85,1.81,1.27,3.91,1.27,6.29c-0.04,2.42-0.48,4.54-1.33,6.35c-0.85,1.81-2.05,3.21-3.6,4.2
				c-1.55,0.99-3.34,1.48-5.35,1.48h-21.83V589.35z"/>
		</g>
	</g>
</g>
</svg>
